<svg width="30" height="48" viewBox="0 0 30 48" fill="none" xmlns="http://www.w3.org/2000/svg">
<path fill-rule="evenodd" clip-rule="evenodd" d="M0 21.4887L2.76209 17.9126H27.2379L30 21.4887H0ZM6.12887 13.8491H24.1137L24.7643 17.4329H5.47826L6.12887 13.8491Z" fill="#866746"/>
<path fill-rule="evenodd" clip-rule="evenodd" d="M3.09155 22.208H27.1463L22.5321 48H8.11303L3.09155 22.208Z" fill="#E2CBB2"/>
<path fill-rule="evenodd" clip-rule="evenodd" d="M23.0936 30.5068C22.1545 35.9127 9.36955 37.9035 7.14355 30.5592C7.67286 24.491 21.0894 23.3235 23.0936 30.5068Z" fill="white"/>
<path fill-rule="evenodd" clip-rule="evenodd" d="M19.0508 30.9508C18.7328 33.1963 14.3223 34.0239 13.5684 30.9721C13.7481 28.4514 18.372 27.9667 19.0508 30.9508Z" fill="#866746"/>
<path d="M13.5732 30.5654H19.0515V31.2786H13.5732V30.5654Z" fill="#775A3B"/>
<path fill-rule="evenodd" clip-rule="evenodd" d="M15.65 31.8984C14.4599 33.415 10.399 31.773 11.0151 29.1042C12.2008 27.3109 16.3019 29.3187 15.65 31.8984Z" fill="#93714D"/>
<path fill-rule="evenodd" clip-rule="evenodd" d="M11.2911 28.8979L15.9544 31.8427L15.6179 32.4799L10.9546 29.5345L11.2911 28.8979Z" fill="#775A3B"/>
<path fill-rule="evenodd" clip-rule="evenodd" d="M16.8692 13.12C18.119 6.43882 9.98612 3.84472 16.8692 0C12.4607 3.40092 19.5892 7.61573 16.8692 13.12ZM12.6676 13.12C13.9174 6.43882 5.78455 3.84472 12.6676 0C8.25916 3.40092 15.3879 7.61573 12.6676 13.12Z" fill="#CCCCCC"/>
</svg>
